<?xml version="1.0" encoding="UTF-8" standalone="no"?>
<!-- Created with Inkscape (http://www.inkscape.org/) -->

<svg
   xmlns:dc="http://purl.org/dc/elements/1.1/"
   xmlns:cc="http://creativecommons.org/ns#"
   xmlns:rdf="http://www.w3.org/1999/02/22-rdf-syntax-ns#"
   xmlns:svg="http://www.w3.org/2000/svg"
   xmlns="http://www.w3.org/2000/svg"
   xmlns:sodipodi="http://sodipodi.sourceforge.net/DTD/sodipodi-0.dtd"
   xmlns:inkscape="http://www.inkscape.org/namespaces/inkscape"
   width="400px"
   height="200px"
   viewBox="0 0 1052.3622 744.09448"
   id="svg2"
   version="1.1"
   inkscape:version="0.91 r13725"
   sodipodi:docname="iffi_logo.svg">
  <defs
     id="defs4" />
  <sodipodi:namedview
     id="base"
     pagecolor="#ffffff"
     bordercolor="#666666"
     borderopacity="1.0"
     inkscape:pageopacity="0.0"
     inkscape:pageshadow="2"
     inkscape:zoom="0.73780952"
     inkscape:cx="526.1811"
     inkscape:cy="372.04724"
     inkscape:document-units="px"
     inkscape:current-layer="layer1"
     showgrid="false"
     showguides="true"
     inkscape:guide-bbox="true"
     inkscape:window-width="1280"
     inkscape:window-height="751"
     inkscape:window-x="0"
     inkscape:window-y="1"
     inkscape:window-maximized="1">
    <sodipodi:guide
       position="497.14287,277.14286"
       orientation="1,0"
       id="guide3344" />
    <sodipodi:guide
       position="331.42858,397.14286"
       orientation="0,1"
       id="guide3346" />
  </sodipodi:namedview>
  <metadata
     id="metadata7">
    <rdf:RDF>
      <cc:Work
         rdf:about="">
        <dc:format>image/svg+xml</dc:format>
        <dc:type
           rdf:resource="http://purl.org/dc/dcmitype/StillImage" />
        <dc:title></dc:title>
      </cc:Work>
    </rdf:RDF>
  </metadata>
  <g
     inkscape:label="Layer 1"
     inkscape:groupmode="layer"
     id="layer1"
     transform="translate(0,-308.26772)">
    <path
       style="fill:#fff"
       d="m 47.170237,489.89029 c -25.219403,0 -45.5214835,22.3 -45.5214835,50 l 0,254.28515 c 0,27.7 20.3020805,50 45.5214835,50 l 954.669963,0 c 25.2195,0 45.5215,-22.3 45.5215,-50 l 0,-254.28515 c 0,-27.7 -20.302,-50 -45.5215,-50 l -954.669963,0 z m 178.447263,69.05078 97.97071,0 0,5.89844 -8.26368,0 c -9.33061,0 -16.13049,2.60452 -20.40234,7.8125 -2.81042,3.40113 -4.2168,11.58397 -4.2168,24.55078 l 0,139.66015 c 0,10.94739 0.73194,18.17423 2.19336,21.68164 1.12417,2.65714 3.48469,4.94234 7.08204,6.85547 4.83393,2.55085 9.94773,3.82618 15.34374,3.82618 l 8.26368,0 0,5.89843 -97.97071,0 0,-5.89843 8.09375,0 c 9.44304,0 16.30042,-2.60452 20.57227,-7.8125 2.69801,-3.40113 4.04687,-11.58398 4.04687,-24.55079 l 0,-139.66015 c 0,-10.94739 -0.73193,-18.17423 -2.19336,-21.68164 -1.12417,-2.65714 -3.42718,-4.94234 -6.9121,-6.85547 -4.94635,-2.55085 -10.11766,-3.82617 -15.51368,-3.82617 l -8.09375,0 0,-5.89844 z m 112.30469,0 170.14258,0 2.19141,47.50976 -5.90235,0 c -2.92284,-10.0971 -6.35056,-17.48555 -10.28515,-22.1621 -3.82218,-4.78284 -8.60072,-8.23563 -14.33399,-10.36133 -5.62085,-2.12571 -14.38848,-3.18946 -26.30469,-3.18946 l -50.41992,0 0,84.97461 41.65039,0 c 9.55545,0 16.52589,-1.96588 20.91016,-5.89843 4.49668,-4.03885 7.47608,-11.95624 8.9375,-23.75391 l 6.23828,0 0,73.17773 -6.23828,0 c -0.11242,-8.39654 -1.29268,-14.56158 -3.54102,-18.49414 -2.13592,-3.93255 -5.17087,-6.85639 -9.10547,-8.76953 -3.82218,-2.01942 -9.55681,-3.02929 -17.20117,-3.0293 l -41.65039,0 0,67.91797 c 0,10.94739 0.73194,18.17423 2.19336,21.68164 1.12417,2.65714 3.48469,4.94234 7.08203,6.85547 4.94635,2.55085 10.11766,3.82618 15.51367,3.82618 l 8.26172,0 0,5.89843 -98.13867,0 0,-5.89843 8.09375,0 c 9.44303,0 16.30042,-2.60452 20.57227,-7.8125 2.69801,-3.40113 4.04687,-11.58398 4.04687,-24.55079 l 0,-139.66015 c 0,-10.94739 -0.73194,-18.17423 -2.19336,-21.68164 -1.12417,-2.65714 -3.42718,-4.94234 -6.91211,-6.85547 -4.83393,-2.55085 -10.00523,-3.82617 -15.51367,-3.82617 l -8.09375,0 0,-5.89844 z m 192.23242,0 170.14258,0 2.19336,47.50976 -5.90234,0 c -2.92285,-10.0971 -6.35252,-17.48555 -10.28711,-22.1621 -3.82218,-4.78284 -8.59876,-8.23563 -14.33203,-10.36133 -5.62086,-2.12571 -14.39044,-3.18946 -26.30664,-3.18946 l -50.41797,0 0,84.97461 41.65039,0 c 9.55545,0 16.52394,-1.96588 20.9082,-5.89843 4.49668,-4.03885 7.47608,-11.95624 8.9375,-23.75391 l 6.24024,0 0,73.17773 -6.24024,0 c -0.11242,-8.39654 -1.29267,-14.56158 -3.54102,-18.49414 -2.13592,-3.93255 -5.17087,-6.85639 -9.10546,-8.76953 -3.82218,-2.01942 -9.55486,-3.02929 -17.19922,-3.0293 l -41.65039,0 0,67.91797 c 0,10.94739 0.72998,18.17423 2.1914,21.68164 1.12417,2.65714 3.48469,4.94234 7.08203,6.85547 4.94635,2.55085 10.11766,3.82618 15.51368,3.82618 l 8.26367,0 0,5.89843 -98.14063,0 0,-5.89843 8.09375,0 c 9.44303,0 16.30042,-2.60452 20.57227,-7.8125 2.69801,-3.40113 4.04687,-11.58398 4.04687,-24.55079 l 0,-139.66015 c 0,-10.94739 -0.72998,-18.17423 -2.1914,-21.68164 -1.12417,-2.65714 -3.42914,-4.94234 -6.91407,-6.85547 -4.83393,-2.55085 -10.00523,-3.82617 -15.51367,-3.82617 l -8.09375,0 0,-5.89844 z m 195.26758,0 97.97266,0 0,5.89844 -8.26367,0 c -9.33062,0 -16.1305,2.60452 -20.40235,7.8125 -2.81042,3.40113 -4.2168,11.58397 -4.2168,24.55078 l 0,139.66015 c 0,10.94739 0.72999,18.17423 2.19141,21.68164 1.12417,2.65714 3.48664,4.94234 7.08399,6.85547 4.83393,2.55085 9.94773,3.82618 15.34375,3.82618 l 8.26367,0 0,5.89843 -97.97266,0 0,-5.89843 8.09375,0 c 9.44303,0 16.30042,-2.60452 20.57227,-7.8125 2.69801,-3.40113 4.04882,-11.58398 4.04882,-24.55079 l 0,-139.66015 c 0,-10.94739 -0.73193,-18.17423 -2.19335,-21.68164 -1.12417,-2.65714 -3.42914,-4.94234 -6.91407,-6.85547 -4.94635,-2.55085 -10.11765,-3.82617 -15.51367,-3.82617 l -8.09375,0 0,-5.89844 z"
       id="rect3356"
       inkscape:connector-curvature="0" />
  </g>
</svg>
